<svg width="25" height="23" viewBox="0 0 25 23" fill="none" xmlns="http://www.w3.org/2000/svg">
<path id="source (Stroke)" fill-rule="evenodd" clip-rule="evenodd" d="M0.641786 0.82761C1.56543 -0.198665 3.14616 -0.281861 4.17243 0.641786L12.5 8.13662L20.8276 0.641786C21.8539 -0.281861 23.4346 -0.198665 24.3583 0.82761C25.2819 1.85388 25.1987 3.43461 24.1724 4.35826L16.2371 11.5L24.1724 18.6418C25.1987 19.5654 25.2819 21.1462 24.3583 22.1724C23.4346 23.1987 21.8539 23.2819 20.8276 22.3583L12.5 14.8634L4.17243 22.3583C3.14616 23.2819 1.56543 23.1987 0.641787 22.1724C-0.281861 21.1462 -0.198665 19.5654 0.82761 18.6418L8.7629 11.5L0.82761 4.35826C-0.198665 3.43461 -0.281861 1.85388 0.641786 0.82761Z" fill="#F9F9F9"/>
</svg>
